<?xml version="1.0" encoding="utf-8"?>
<!-- Generator: Adobe Illustrator 16.0.0, SVG Export Plug-In . SVG Version: 6.00 Build 0)  -->
<!DOCTYPE svg PUBLIC "-//W3C//DTD SVG 1.1//EN" "http://www.w3.org/Graphics/SVG/1.1/DTD/svg11.dtd">
<svg version="1.1" id="Layer_1" xmlns="http://www.w3.org/2000/svg" xmlns:xlink="http://www.w3.org/1999/xlink" x="0px" y="0px"
	 width="218.988px" height="191.99px" viewBox="0 0 218.988 191.99" enable-background="new 0 0 218.988 191.99"
	 xml:space="preserve">
<g>
	<g>
		<path fill="#122026" d="M201.952,83.792c-0.562-2.638-2.23-4.596-4.717-5.864c-3.692-1.889-7.773-2.098-11.714-2.928
			c-8.045-1.694-12.065-12.556-7.159-18.506c1.693-2.055,3.147-4.331,4.521-6.619c2.453-4.09,2.801-8.279-0.269-12.228
			c-4.34-5.587-9.224-10.667-14.982-14.824c-2.827-2.042-5.979-2.899-9.354-1.439c-2.38,1.028-4.636,2.28-6.719,3.89
			c-6.627,5.119-11.431,5.249-17.893,0.589c-2.363-1.705-3.612-3.995-3.813-6.979c-0.205-3.054-0.654-6.071-1.862-8.969
			c-2.054-4.923-5.699-7.52-10.97-7.52c-5.279,0-10.57,0.194-15.836-0.063c-4.173-0.206-6.896,1.884-9.217,4.831
			c-2.454,3.112-3.151,6.875-3.465,10.702c-0.354,4.42-1.979,8.089-6.21,9.973c-4.309,1.92-8.667,2.568-12.833-0.586
			c-1.936-1.466-3.908-2.901-5.991-4.145c-3.912-2.333-8.028-3.387-12.066-0.388c-6.016,4.467-11.354,9.663-15.753,15.754
			c-2.298,3.18-2.38,6.599-0.632,10.108c1.159,2.333,2.518,4.529,4.104,6.595c4.443,5.771,4.572,9.906,0.604,16.001
			c-1.693,2.599-3.902,4.131-7.104,4.396c-4.45,0.37-8.888,1.007-12.551,3.928c-2.62,2.089-4.433,4.47-4.282,8.21
			c0.254,6.325,0.132,12.669,0.033,19.003c-0.031,1.975,0.643,3.408,2.044,4.699c3.545,3.266,7.897,4.631,12.479,5.544
			c3.386,0.673,6.853,1.041,9.421,3.89c3.493,3.864,4.521,11.199-0.127,16.446c-2.783,3.142-4.854,6.695-4.804,11.365
			c-0.217,3.772,1.627,6.94,4.224,9.758c3.41,3.706,7.709,6.438,11.146,10.134c2.814,3.026,6.348,3.571,10.272,2.523
			c4.063-1.086,6.985-4.033,10.392-6.184c7.613-4.813,16.477-0.713,17.652,8.18c0.49,3.686,1.045,7.447,3.156,10.621
			c2.281,3.428,4.853,6.302,9.743,5.951c5.175-0.373,10.409-0.36,15.583-0.004c4.556,0.315,7.312-1.896,9.688-5.244
			c2.492-3.507,2.975-7.638,3.707-11.688c1.51-8.352,9.396-12.37,16.932-8.505c2.227,1.146,4.249,2.67,6.361,4.026
			c4.792,3.074,9.659,4.338,14.628,0.428c5.369-4.227,10.24-8.969,14.277-14.502c2.809-3.85,2.478-7.842,0.276-11.873
			c-1.399-2.576-3.135-4.922-4.871-7.26c-4.526-6.104,0.244-17.431,7.686-18.198c3.428-0.356,6.856-1.056,10.155-2.259
			c3.243-1.187,5.479-3.364,6.138-6.668C203.578,99.885,203.658,91.807,201.952,83.792z M192.3,101.594
			c-0.006,2.992-0.657,3.708-3.755,3.638c-3.197-0.073-6.313,0.32-9.297,1.44c-5.87,2.206-9.364,6.737-11.742,12.298
			c-1.374,3.213-2.379,6.555-2.803,10.016c-0.329,2.705,0.33,5.301,1.751,7.662c1.755,2.916,3.513,5.826,4.87,8.959
			c1.046,2.41,0.672,4.662-0.948,6.604c-2.235,2.688-4.938,4.926-7.633,7.143c-1.368,1.123-2.526,0.414-3.583-0.713
			c-3.058-3.254-6.613-5.63-11.072-6.646c-5.621-1.278-10.729,0.491-15.85,2.323c-1.903,0.682-3.733,1.568-5.613,2.322
			c-4.001,1.603-5.319,5.043-5.886,8.854c-0.511,3.459-1.597,6.764-2.347,10.152c-0.396,1.779-1.223,2.66-3.268,2.871
			c-2.021,0.211-4.029,0.248-6.107,0.361c-1.71-0.182-3.486-0.125-5.269-0.279c-2.175-0.195-2.875-1.47-3.503-3.101
			c-0.993-2.581-1.802-5.296-1.88-8.001c-0.209-7.107-4.742-10.463-10.52-12.779c-3.605-1.447-7.34-2.582-11.013-3.859
			c-1.554-0.543-2.997-0.303-4.456,0.425c-4.525,2.256-8.521,5.319-12.532,8.332c-1.545,1.155-2.501,1.146-3.85-0.294
			c-2.996-3.201-6.145-6.264-9.301-9.313c-1.338-1.291-1.443-2.347-0.05-3.662c4.136-3.911,6.725-8.626,7.513-14.347
			c0.376-2.737-0.117-5.316-0.778-7.896c-0.91-3.557-2.629-6.77-4.331-10.004c-2.88-5.479-7.993-6.642-13.407-7.385
			c-0.72-0.099-1.433-0.246-2.143-0.396c-8.222-1.705-7.665-4.402-7.299-11.348c0.089-1.683,0.735-3.337,0.782-5.015
			c0.064-2.345,1.313-2.872,3.317-2.797c4.625,0.175,9.03-0.566,12.943-3.264c4.586-3.159,6.482-8.1,8.795-12.845
			c3.441-7.058,2.329-13.156-2.151-19.494c-5.476-7.741-4.763-9.872,3.258-16.495c3.83-3.166,3.88-3.229,7.75-0.163
			c3.221,2.549,6.668,4.504,10.703,5.475c4.75,1.146,9.127-0.116,13.504-1.699c2.304-0.832,4.354-2.148,6.5-3.286
			c5.216-2.771,6.562-7.651,7.121-13.001c0.253-2.416,0.821-4.765,1.94-6.978c0.912-1.803,2.361-2.627,4.242-2.792
			c4.074-0.355,8.063,0.48,12.066,1.031c1.517,0.208,1.399,1.65,1.654,2.667c0.647,2.585,1.079,5.224,1.722,7.811
			c2.313,9.373,9.136,13.675,17.887,15.771c7.59,1.82,13.556-1.703,19.267-5.924c4.131-3.055,4.097-3.124,7.365,0.721
			c2.569,3.021,5.063,6.109,7.691,9.074c0.938,1.056,0.654,1.882,0.038,2.813c-1.209,1.826-2.417,3.651-3.659,5.453
			c-5.992,8.689-4.837,16.742,1.048,25.256c3.71,5.367,9.451,7.123,15.365,8.377c6.918,1.469,6.938,1.356,6.938,8.366
			C192.3,96.558,192.304,99.076,192.3,101.594z"/>
	</g>
	<g>
		<path fill="#122026" d="M110.177,55.622C87.364,55.463,69.141,73.151,69.16,95.835c0.021,22.702,17.66,40.486,40.291,40.407
			c22.479-0.078,39.874-17.675,40.438-39.942C149.523,74.15,132.242,55.775,110.177,55.622z M109.297,125.39
			c-15.84-0.087-29.354-13.39-29.27-29.652c0.086-15.75,13.603-29.87,29.476-29.042c15.362-0.859,29.543,13.202,29.396,29.355
			C138.752,112.056,125.273,125.476,109.297,125.39z"/>
	</g>
</g>
</svg>
