<?xml version="1.0" encoding="utf-8"?>
<!-- Generator: Adobe Illustrator 16.0.0, SVG Export Plug-In . SVG Version: 6.00 Build 0)  -->
<!DOCTYPE svg PUBLIC "-//W3C//DTD SVG 1.1//EN" "http://www.w3.org/Graphics/SVG/1.1/DTD/svg11.dtd">
<svg version="1.1" id="Layer_1" xmlns="http://www.w3.org/2000/svg" xmlns:xlink="http://www.w3.org/1999/xlink" x="0px" y="0px"
	 width="218.988px" height="191.99px" viewBox="0 0 218.988 191.99" enable-background="new 0 0 218.988 191.99"
	 xml:space="preserve">
<rect x="-351.001" y="-31.5" fill="#1F313A" width="218.988" height="191.99"/>
<g>
	<g>
		<path fill="#34717F" d="M11.989-243.968c-31.688,47.226-67.233,119.023-51.023,151.199c6.847,13.57,24.01,20.44,51.016,20.44
			c27.024,0,44.188-6.881,51.034-20.444C79.244-124.99,43.677-196.769,11.989-243.968z"/>
	</g>
</g>
<path fill="#3D7E89" d="M109.494,4.331v177.33c28.805-0.002,47.098-11.536,54.395-25.995
	C181.19,121.318,143.276,54.651,109.494,4.331z"/>
<g>
	<path fill="#34717F" d="M109.489,5.27c-33.784,50.349-71.68,116.096-54.397,150.399c7.298,14.469,25.596,25.514,54.388,25.514
		c0.005,0,0.009,0,0.015,0V5.277C109.492,5.275,109.49,5.272,109.489,5.27z M82.186,161.426c-0.63,0.823-1.582,1.257-2.544,1.257
		c-0.677,0-1.36-0.214-1.939-0.657c-5.962-4.553-9.86-9.812-12.267-16.548c-2.881-8.067-3.75-17.724-2.583-28.703
		c0.187-1.756,1.765-3.035,3.519-2.842c1.756,0.188,3.029,1.763,2.842,3.519c-1.065,10.016-0.31,18.721,2.246,25.874
		c2,5.595,5.123,9.795,10.126,13.617C82.99,158.015,83.258,160.021,82.186,161.426z"/>
</g>
</svg>
