<?xml version="1.0" encoding="utf-8"?>
<!-- Generator: Adobe Illustrator 16.0.0, SVG Export Plug-In . SVG Version: 6.00 Build 0)  -->
<!DOCTYPE svg PUBLIC "-//W3C//DTD SVG 1.1//EN" "http://www.w3.org/Graphics/SVG/1.1/DTD/svg11.dtd">
<svg version="1.1" id="Layer_1" xmlns="http://www.w3.org/2000/svg" xmlns:xlink="http://www.w3.org/1999/xlink" x="0px" y="0px"
	 width="218.988px" height="191.99px" viewBox="0 0 218.988 191.99" enable-background="new 0 0 218.988 191.99"
	 xml:space="preserve">
<path fill="#408196" d="M109.494,4.331v177.33c28.805-0.002,47.098-11.536,54.395-25.995
	C181.19,121.318,143.276,54.651,109.494,4.331z"/>
<g>
	<path fill="#39768E" stroke="#39768E" stroke-miterlimit="10" d="M109.489,5.27c-33.784,50.349-71.68,116.096-54.397,150.399
		c7.298,14.469,25.596,25.514,54.388,25.514c0.005,0,0.009,0,0.015,0V5.277C109.492,5.275,109.49,5.272,109.489,5.27z
		 M82.186,161.426c-0.63,0.823-1.582,1.257-2.544,1.257c-0.677,0-1.36-0.214-1.939-0.657c-5.962-4.553-9.86-9.812-12.267-16.548
		c-2.881-8.067-3.75-17.724-2.583-28.703c0.187-1.756,1.765-3.035,3.519-2.842c1.756,0.188,3.029,1.763,2.842,3.519
		c-1.065,10.016-0.31,18.721,2.246,25.874c2,5.595,5.123,9.795,10.126,13.617C82.99,158.015,83.258,160.021,82.186,161.426z"/>
</g>
</svg>
